<?xml version="1.0" encoding="UTF-8" standalone="no"?>
<!DOCTYPE svg PUBLIC "-//W3C//DTD SVG 1.1//EN" "http://www.w3.org/Graphics/SVG/1.1/DTD/svg11.dtd">
<svg width="100%" height="100%" viewBox="0 0 435 435" version="1.1" xmlns="http://www.w3.org/2000/svg" xmlns:xlink="http://www.w3.org/1999/xlink" xml:space="preserve" xmlns:serif="http://www.serif.com/" style="fill-rule:evenodd;clip-rule:evenodd;stroke-linejoin:round;stroke-miterlimit:2;">
    <g transform="matrix(1,0,0,1,-912.207966,-572.78082)">
        <g transform="matrix(1,0,0,1,129.761191,229.182525)">
            <rect x="782.447" y="343.598" width="434.13" height="434.13" style="fill:none;"/>
            <g transform="matrix(1.132654,0,0,1.132654,83.760444,74.895967)">
                <g>
                    <g transform="matrix(1,0,0,1,-320.122657,0)">
                        <path d="M942.531,408.411L1127.449,285.059L1314.715,408.411L1287.776,415.501L1127.56,305.618L968.761,414.792L942.531,408.411Z" style="fill:rgb(39,56,92);"/>
                    </g>
                    <g transform="matrix(1,0,0,1,-320.104009,0)">
                        <g transform="matrix(1,0,0,1,0,-0.850707)">
                            <path d="M1020.165,396.12L999.413,409.782L999.413,534.061L1020.165,526.801L1020.165,396.12Z" style="fill:rgb(39,56,92);"/>
                        </g>
                        <g transform="matrix(-1,0,0,1,2257.209178,-0.850707)">
                            <path d="M1020.165,396.12L999.413,409.782L999.413,534.061L1020.165,526.801L1020.165,396.12Z" style="fill:rgb(39,56,92);"/>
                        </g>
                    </g>
                    <g transform="matrix(1,0,0,1,-315.198669,0)">
                        <path d="M1115.113,375.826C1095.243,367.018 1077.875,372.147 1063.426,393.538C1063.518,405.24 1059.753,409.228 1052.102,405.444L1044.552,414.155L1061.394,431.577L1070.105,422.866C1068.664,417.571 1068.914,414.143 1070.709,412.424C1072.847,410.376 1077.179,410.752 1083.462,413.284L1097.981,399.927C1084.691,386.464 1090.46,378.447 1115.113,375.826Z" style="fill:rgb(39,56,92);"/>
                        <path d="M1099.142,405.153L1090.431,415.897L1179.982,507.575C1185.809,511.223 1200.955,496.986 1194.875,489.852L1099.142,405.153Z" style="fill:rgb(39,56,92);"/>
                        <path d="M1187.743,374.264C1163.571,372.34 1151.221,381.92 1153.844,405.653L1132.066,425.979L1148.617,441.079L1168.363,422.785C1193.048,427.437 1202.195,414.453 1202.847,390.849L1185.459,407.171L1174.451,403.302L1170.009,390.062L1187.743,374.264Z" style="fill:rgb(39,56,92);"/>
                        <g transform="matrix(-1,0,0,-1,2258.57179,886.399468)">
                            <path d="M1187.743,374.264C1163.571,372.34 1151.221,381.92 1153.844,405.653L1132.066,425.979L1148.617,441.079L1168.363,422.785C1193.048,427.437 1202.195,414.453 1202.847,390.849L1185.459,407.171L1174.451,403.302L1170.009,390.062L1187.743,374.264Z" style="fill:rgb(39,56,92);"/>
                        </g>
                    </g>
                </g>
                <g transform="matrix(1,0,0,1,-320.667436,0)">
                    <path d="M946.595,572.692C1048.525,507.591 1210.053,507.971 1311.741,571.966C1188.572,531.501 1066.86,531.851 946.595,572.692Z" style="fill:rgb(86,131,25);"/>
                </g>
            </g>
        </g>
    </g>
</svg>
